<?xml version="1.0" encoding="UTF-8" standalone="no"?>
<svg
   xmlns:dc="http://purl.org/dc/elements/1.1/"
   xmlns:cc="http://creativecommons.org/ns#"
   xmlns:rdf="http://www.w3.org/1999/02/22-rdf-syntax-ns#"
   xmlns:svg="http://www.w3.org/2000/svg"
   xmlns="http://www.w3.org/2000/svg"
   xmlns:sodipodi="http://sodipodi.sourceforge.net/DTD/sodipodi-0.dtd"
   xmlns:inkscape="http://www.inkscape.org/namespaces/inkscape"
   version="1.1"
   x="0px"
   y="0px"
   viewBox="0 0 69 105"
   enable-background="new 0 0 100 100"
   xml:space="preserve"
   id="svg2"
   inkscape:version="0.91 r13725"
   sodipodi:docname="heart.svg"
   width="69"
   height="105"><metadata
     id="metadata30"><rdf:RDF><cc:Work
         rdf:about=""><dc:format>image/svg+xml</dc:format><dc:type
           rdf:resource="http://purl.org/dc/dcmitype/StillImage" /><dc:title></dc:title></cc:Work></rdf:RDF></metadata><defs
     id="defs28" /><sodipodi:namedview
     pagecolor="#ffffff"
     bordercolor="#666666"
     borderopacity="1"
     objecttolerance="10"
     gridtolerance="10"
     guidetolerance="10"
     inkscape:pageopacity="0"
     inkscape:pageshadow="2"
     inkscape:window-width="1008"
     inkscape:window-height="1024"
     id="namedview26"
     showgrid="false"
     inkscape:zoom="5.3400704"
     inkscape:cx="32.370742"
     inkscape:cy="47.518924"
     inkscape:window-x="672"
     inkscape:window-y="0"
     inkscape:window-maximized="0"
     inkscape:current-layer="svg2" /><path
     d="m 31.339642,50.644107 c 0,0 -2.491,-1.079758 -4.224221,1.989379 0,0 -1.353464,-0.568742 -2.111821,0.965523 0,0 -2.436583,0.170744 -2.978431,3.069744 0,0 -0.595687,1.534872 -1.137535,2.045888 0,0 -0.270925,2.558121 2.544836,6.025254 0,0 3.465864,6.309625 5.036415,7.4465 0,0 2.870178,3.410016 2.978432,4.31903 0,0 1.787059,1.989379 4.440149,2.615237 0,0 4.548404,1.136267 5.740355,-1.421245 0,0 2.870178,-3.751505 3.790626,-6.991385 0,0 2.924594,-6.877758 3.032848,-7.161521 0,0 1.354043,-2.55812 -0.488011,-5.740883 0,0 -3.844464,1.875752 -5.794193,-0.909622 0,0 -2.057983,-0.851896 -2.490999,-1.818635 0,0 -2.003567,-1.250501 -3.412026,-0.852504 0,0 -1.083119,-1.250501 -2.003567,-1.307011 l -0.108833,-0.795994 c 0.0012,0 -2.110084,0.397997 -2.814024,-1.477755 z"
     id="path4"
     inkscape:connector-curvature="0"
     style="fill:#a3d9ff;fill-opacity:0.58156025" /><path
     d="m 48.072117,57.294611 c 0,0 1.57055,-2.614629 0.270924,-4.547499 0,0 0.05442,-1.761517 -1.516135,-2.614629 0,0 -0.650102,-1.875145 -1.678226,-1.534265 0,0 -0.86661,0 -0.758356,1.136267 0,0 -0.975444,0.227861 -0.975444,0.795995 0,0 -1.787059,0.625251 -1.569972,2.27375 0,0 -1.733221,1.534872 0.3786,3.126861 0,0 0.216507,1.421245 2.382166,2.160123 5.79e-4,-0.0012 2.438319,0.113019 3.466443,-0.796603 z"
     id="path6"
     inkscape:connector-curvature="0"
     style="fill:#a3d9ff;fill-opacity:0.58156025" /><path
     d="m 20.888213,57.351121 c 0,0 -1.136957,-0.455115 -0.758357,-2.55812 0,0 -2.274491,-9.321644 3.953296,-12.959522 0,0 2.274491,-3.29639 3.411447,-2.330259 0,0 1.245789,0.568134 0.379758,3.012627 0,0 1.840896,1.875752 1.083118,3.296998 0,0 0.812195,1.136267 -0.108833,1.875752 0,0 0.541849,1.420638 -0.649523,2.160123 0,0 -1.354043,0.966131 -1.299627,2.160123 0,0 -1.678805,-0.227862 -2.111821,1.023248 0,0 -2.924015,0.511624 -3.086685,3.239272 -5.79e-4,-6.07e-4 -0.217087,1.193385 -0.812773,1.079758 z"
     id="path8"
     inkscape:connector-curvature="0"
     style="fill:#a3d9ff;fill-opacity:0.58156025" /><path
     d="m 24.245244,41.038092 c 0,0 1.760429,-2.330259 2.978431,-2.017937 0,0 1.380672,0.198695 1.218581,2.501003 l -0.270925,0.966738 0.406387,0.483066 c 0,0 0.70394,-3.722946 1.733221,-3.581368 0,0 2.13845,-2.387377 1.569972,-6.394693 0,0 -2.463791,0.08568 -5.848609,3.950807 5.79e-4,0 -1.840896,2.330259 -1.787058,4.092384 z"
     id="path10"
     inkscape:connector-curvature="0"
     style="fill:#a3d9ff;fill-opacity:0.58156025" /><path
     d="m 48.722219,52.775671 c 0,0 1.137535,-3.581368 0.325341,-5.769442 0,0 0.974865,-1.478362 1.706013,0 0,0 0.595687,0.852504 1.028123,0.142185 l 0.677311,0.624643 c 0,0 0.920449,0.170744 1.028703,-0.653201 l -1.136957,-1.961428 1.597181,-0.05712 c 0,0 0.595686,-1.136267 0.02721,-1.903703 l -1.461718,-0.227254 0.811615,-0.738877 c 0,0 0.0822,-1.108316 -0.649524,-1.051199 l -1.05591,1.562823 -7.039403,1.449804 c 0,0 -1.597759,-0.170744 -2.030775,2.245191 0,0 -0.70394,3.410016 -2.599832,6.081763 0,0 0.704519,1.875752 0.568478,2.586071 0,0 -0.460224,0.540183 1.40846,1.420638 l 0.02721,-0.368831 c 0,0 -1.381251,-1.108317 -1.028702,-2.358818 0,0 0.270924,-0.937572 0.595686,-1.051199 0,0 -0.243716,-1.534872 1.624967,-2.472444 0,0 0.3786,-0.795995 0.91987,-0.824554 0,0 0.243716,-1.27906 1.029281,-1.250501 0,0 1.218002,-0.34088 1.976358,1.762125 -5.78e-4,0 1.407302,0.539575 1.651018,2.813325 z"
     id="path12"
     inkscape:connector-curvature="0"
     style="fill:#a3d9ff;fill-opacity:0.58156025" /><path
     d="m 52.07925,38.309836 c 0,0 -4.277479,-0.284371 -7.364743,1.023248 0,0 -2.599253,2.160123 -5.739776,1.534872 0,0 -1.895313,0.04253 -2.382746,-0.355463 0,0 -1.611073,0.923597 -1.868683,2.799349 0,0 2.247283,-0.455115 2.409374,1.477755 0,0 -0.05384,2.728256 -2.32775,3.467134 0,0 -2.11182,0.397389 -3.141101,1.875144 0,0 0.379178,1.989379 2.653669,1.591382 0,0 0.757778,-2.216025 2.761924,-2.273142 0,0 -2.382746,1.079757 -2.436583,3.125646 0,0 1.136956,0.568741 1.787059,1.251109 0,0 1.732642,-0.170744 3.736788,1.136267 0,0 0,-1.477755 -0.650103,-2.443886 0,0 2.437162,-3.694995 2.708086,-6.309624 0,0 0.433016,-2.671139 2.328329,-2.330259 l 6.931728,-1.420638 c -5.79e-4,6.08e-4 1.028123,-2.329651 0.594528,-4.148894 z m -0.300448,2.146755 c -0.141251,1.001373 -0.382073,1.793722 -0.537796,1.769417 -0.155724,-0.0243 -0.166723,-0.855542 -0.02489,-1.856916 0.14183,-1.001373 0.382652,-1.793722 0.538375,-1.768809 0.155145,0.0237 0.165565,0.854935 0.02431,1.856308 z"
     id="path14"
     inkscape:connector-curvature="0"
     style="fill:#a3d9ff;fill-opacity:0.58156025" /><g
     id="g16"
     transform="matrix(0.57889825,0,0,0.60762947,7.46472,21.662611)"
     style="fill:#a3d9ff;fill-opacity:0.58156025"><path
       d="m 38.436,19.352 c 0,0 2.479,-1.543 4.115,-1.122 0,0 1.497,5.145 -2.338,11.318 0,0 3.181,-4.302 5.146,-5.425 0,0 -1.59,-7.765 -4.21,-12.161 -2.619,-4.396 -1.683,-6.455 -1.683,-6.455 0,0 -2.526,-1.029 -3.648,1.029 l 2.151,6.642 c 0,0 -5.52,-5.52 -11.226,-2.432 0,0 -1.216,2.245 1.31,3.274 0,0 1.871,-2.339 6.548,0.842 -10e-4,0 3.086,2.245 3.835,4.49 z M 37.765,6.522 c -0.794,0.194 -1.49,0.137 -1.554,-0.126 -0.064,-0.264 0.526,-0.634 1.32,-0.828 0.794,-0.193 1.489,-0.137 1.554,0.127 0.065,0.264 -0.527,0.634 -1.32,0.827 z"
       id="path18"
       inkscape:connector-curvature="0"
       style="fill:#a3d9ff;fill-opacity:0.58156025" /><path
       d="m 67.527,12.804 c 0,0 -4.677,-4.116 -9.354,-1.777 0,0 -6.08,2.526 -7.39,10.383 l -0.842,0.842 c 0,0 2.245,-13.95 3.274,-15.061 0,0 -1.403,-1.965 -3.929,-0.749 0,0 -2.9,6.829 -3.087,16.932 l 0.047,0.888 c 0,0 -2.76,1.871 -5.8,5.893 l -0.889,-0.28 c 0,0 -1.73,-0.046 -2.573,5.893 0,0 1.638,1.684 0.842,3.976 0,0 1.029,1.684 -0.234,3.461 0,0 0.421,2.104 -0.795,3.368 0,0 -2.105,0.842 -2.572,2.853 0,0 2.759,-3.508 6.734,-2.526 0,0 1.872,-2.806 5.613,-3.976 0,0 -2.713,-9.448 4.49,-13.002 0,0 5.238,-1.871 8.139,1.123 0,0 4.771,-1.777 5.238,-2.993 0,0 -1.217,-4.865 -9.354,-6.642 0,0 1.028,-10.29 10.852,-6.267 0.001,0 2.058,-0.655 1.59,-2.339 z M 49.747,6.589 C 49.785,6.32 50.471,6.194 51.28,6.307 52.09,6.42 52.715,6.73 52.676,6.998 52.64,7.267 51.953,7.393 51.144,7.28 50.335,7.167 49.709,6.858 49.747,6.589 Z m 17.107,7.589 c -0.449,0.43 -0.965,0.621 -1.153,0.425 -0.188,-0.196 0.024,-0.704 0.474,-1.134 0.449,-0.431 0.965,-0.621 1.152,-0.425 0.188,0.196 -0.024,0.704 -0.473,1.134 z"
       id="path20"
       inkscape:connector-curvature="0"
       style="fill:#a3d9ff;fill-opacity:0.58156025" /></g></svg>