<?xml version="1.0" encoding="UTF-8" standalone="no"?>
<svg
   xmlns:dc="http://purl.org/dc/elements/1.1/"
   xmlns:cc="http://creativecommons.org/ns#"
   xmlns:rdf="http://www.w3.org/1999/02/22-rdf-syntax-ns#"
   xmlns:svg="http://www.w3.org/2000/svg"
   xmlns="http://www.w3.org/2000/svg"
   xmlns:sodipodi="http://sodipodi.sourceforge.net/DTD/sodipodi-0.dtd"
   xmlns:inkscape="http://www.inkscape.org/namespaces/inkscape"
   version="1.1"
   x="0px"
   y="0px"
   viewBox="590 924 100 102"
   enable-background="new 590 924 100 100"
   xml:space="preserve"
   id="svg2"
   inkscape:version="0.91 r13725"
   sodipodi:docname="note.svg"
   width="100"
   height="102"><metadata
     id="metadata14"><rdf:RDF><cc:Work
         rdf:about=""><dc:format>image/svg+xml</dc:format><dc:type
           rdf:resource="http://purl.org/dc/dcmitype/StillImage" /><dc:title></dc:title></cc:Work></rdf:RDF></metadata><defs
     id="defs12" /><sodipodi:namedview
     pagecolor="#ffffff"
     bordercolor="#666666"
     borderopacity="1"
     objecttolerance="10"
     gridtolerance="10"
     guidetolerance="10"
     inkscape:pageopacity="0"
     inkscape:pageshadow="2"
     inkscape:window-width="1108"
     inkscape:window-height="1020"
     id="namedview10"
     showgrid="false"
     inkscape:zoom="3.776"
     inkscape:cx="35.739475"
     inkscape:cy="83.686441"
     inkscape:window-x="0"
     inkscape:window-y="0"
     inkscape:window-maximized="0"
     inkscape:current-layer="svg2" /><path
     d="m 640,925 c -27.614,0 -50,22.386 -50,50 0,27.614 22.386,50 50,50 27.614,0 50,-22.386 50,-50 0,-27.614 -22.386,-50 -50,-50 z m 13,42.486 c 0,1.328 0,2.649 0,3.978 0,3.176 0,6.353 0,9.527 0,1.43 -0.652,2.532 -1.749,3.403 -1.717,1.365 -3.636,1.705 -5.714,1.08 -1.677,-0.504 -2.578,-1.774 -2.537,-3.142 0.022,-0.753 0.331,-1.534 0.952,-2.235 0.057,-0.063 0.116,-0.126 0.178,-0.188 1.236,-1.252 2.767,-1.853 4.534,-1.837 1.326,0.01 1.328,0 1.329,-1.328 0,-3.025 0,-6.043 -0.003,-9.067 -0.003,-0.869 -0.08,-0.938 -0.928,-0.755 -1.867,0.4 -3.733,0.854 -5.609,1.234 -0.072,0.015 -0.145,0.028 -0.216,0.042 -1.764,0.352 -3.544,0.647 -5.308,0.978 -0.939,0.176 -0.957,0.189 -0.953,1.166 0.012,1.697 0.076,3.396 0.068,5.09 -0.014,3.045 -0.03,6.085 -0.091,9.131 -0.009,0.396 -0.076,0.759 -0.191,1.092 -0.345,1 -1.12,1.739 -2.052,2.37 -1.003,0.677 -2.297,0.999 -3.541,0.974 -1.034,-0.021 -2.034,-0.283 -2.804,-0.782 -1.614,-1.048 -1.848,-3.251 -0.496,-4.78 1.316,-1.498 3.009,-2.178 4.987,-2.178 1.074,0 1.091,-0.01 1.091,-1.057 0.006,-4.788 0.006,-9.578 0.015,-14.368 0.002,-1.048 0.009,-1.043 1.004,-1.245 5.28,-1.07 10.56,-2.142 15.836,-3.217 0.477,-0.1 0.94,-0.225 1.416,-0.334 0.505,-0.117 0.74,0.044 0.787,0.483 0.007,0.063 0.01,0.132 0.009,0.205 -0.022,1.92 -0.014,3.84 -0.014,5.76 z"
     id="path4"
     inkscape:connector-curvature="0" /></svg>