<?xml version="1.0" encoding="UTF-8" standalone="no"?>
<svg
   xmlns:dc="http://purl.org/dc/elements/1.1/"
   xmlns:cc="http://creativecommons.org/ns#"
   xmlns:rdf="http://www.w3.org/1999/02/22-rdf-syntax-ns#"
   xmlns:svg="http://www.w3.org/2000/svg"
   xmlns="http://www.w3.org/2000/svg"
   xmlns:sodipodi="http://sodipodi.sourceforge.net/DTD/sodipodi-0.dtd"
   xmlns:inkscape="http://www.inkscape.org/namespaces/inkscape"
   version="1.1"
   x="0px"
   y="0px"
   viewBox="0 0 100 54"
   enable-background="new 0 0 100 100"
   xml:space="preserve"
   id="svg2"
   inkscape:version="0.91 r13725"
   sodipodi:docname="shufLove.svg"
   width="100"
   height="54"><metadata
     id="metadata14"><rdf:RDF><cc:Work
         rdf:about=""><dc:format>image/svg+xml</dc:format><dc:type
           rdf:resource="http://purl.org/dc/dcmitype/StillImage" /><dc:title></dc:title></cc:Work></rdf:RDF></metadata><defs
     id="defs12" /><sodipodi:namedview
     pagecolor="#ffffff"
     bordercolor="#666666"
     borderopacity="1"
     objecttolerance="10"
     gridtolerance="10"
     guidetolerance="10"
     inkscape:pageopacity="0"
     inkscape:pageshadow="2"
     inkscape:window-width="672"
     inkscape:window-height="1024"
     id="namedview10"
     showgrid="false"
     inkscape:zoom="5.3400704"
     inkscape:cx="50"
     inkscape:cy="62.5"
     inkscape:window-x="1"
     inkscape:window-y="0"
     inkscape:window-maximized="0"
     inkscape:current-layer="svg2" /><path
     d="M 80,52.3 C 70.1,52.3 58.7,41.1 47.8,29 38.9,19.1 27.7,7.7 20,7.7 c -7.5,0 -9,4.3 -9,8 0,3.5 4.5,7.7 6,8.9 L 20.1,27 17,29.4 c -1.6,1.2 -6,5.4 -6,8.9 0,3.6 1.6,8 9,8 4.9,0 11.8,-4.6 21.1,-14.2 1.2,-1.2 3.1,-1.2 4.2,0 1.2,1.2 1.2,3.1 0,4.2 -10.8,11 -18.7,16 -25.4,16 -6.9,0 -15,-3.7 -15,-14 C 4.9,33.7 8.1,29.5 10.6,27 8.2,24.5 5,20.3 5,15.7 5,5.4 13.1,1.7 20,1.7 c 9.9,0 21.3,11.2 32.2,23.3 8.9,9.9 20.1,21.3 27.7,21.3 7.5,0 9,-4.3 9,-8 0,-3.5 -4.5,-7.7 -6,-8.9 L 79.9,27 83,24.6 c 1.6,-1.2 6,-5.4 6,-8.9 0,-3.6 -1.6,-8 -9,-8 -4.9,0 -11.8,4.6 -21.1,14.2 -1.2,1.2 -3.1,1.2 -4.2,0 -1.2,-1.2 -1.2,-3.1 0,-4.2 10.8,-11 18.7,-16 25.4,-16 6.9,0 15,3.7 15,14 0,4.6 -3.2,8.8 -5.7,11.3 2.5,2.5 5.7,6.7 5.7,11.3 -0.1,10.3 -8.2,14 -15.1,14 z"
     id="path4"
     inkscape:connector-curvature="0" /></svg>