<?xml version="1.0" encoding="UTF-8" standalone="no"?>
<svg
   xmlns:dc="http://purl.org/dc/elements/1.1/"
   xmlns:cc="http://creativecommons.org/ns#"
   xmlns:rdf="http://www.w3.org/1999/02/22-rdf-syntax-ns#"
   xmlns:svg="http://www.w3.org/2000/svg"
   xmlns="http://www.w3.org/2000/svg"
   xmlns:sodipodi="http://sodipodi.sourceforge.net/DTD/sodipodi-0.dtd"
   xmlns:inkscape="http://www.inkscape.org/namespaces/inkscape"
   version="1.1"
   x="0px"
   y="0px"
   viewBox="0 0 81 42"
   enable-background="new 0 0 100 100"
   xml:space="preserve"
   id="svg3458"
   inkscape:version="0.91 r13725"
   sodipodi:docname="shuffleIcon.svg"
   width="81"
   height="42"><metadata
     id="metadata3470"><rdf:RDF><cc:Work
         rdf:about=""><dc:format>image/svg+xml</dc:format><dc:type
           rdf:resource="http://purl.org/dc/dcmitype/StillImage" /><dc:title></dc:title></cc:Work></rdf:RDF></metadata><defs
     id="defs3468" /><sodipodi:namedview
     pagecolor="#ffffff"
     bordercolor="#666666"
     borderopacity="1"
     objecttolerance="10"
     gridtolerance="10"
     guidetolerance="10"
     inkscape:pageopacity="0"
     inkscape:pageshadow="2"
     inkscape:window-width="1372"
     inkscape:window-height="1028"
     id="namedview3466"
     showgrid="false"
     inkscape:zoom="11.522768"
     inkscape:cx="43.309184"
     inkscape:cy="18.522642"
     inkscape:window-x="0"
     inkscape:window-y="0"
     inkscape:window-maximized="0"
     inkscape:current-layer="svg3458" /><polygon
     points="67.071,40 90,40 90,30 63.355,30 63,30 62.929,30 32.929,60 10,60 10,70 36.645,70 37,70 37.071,70 "
     id="polygon3460"
     style="fill:#333533"
     transform="translate(-9.4713882,-28.582038)" /><polygon
     points="10,40 32.929,40 41.161,48.232 48.232,41.161 37.071,30 37,30 36.645,30 10,30 "
     id="polygon3462"
     style="fill:#333533"
     transform="translate(-9.4713882,-28.582038)" /><polygon
     points="90,70 90,60 67.071,60 58.839,51.768 51.768,58.839 62.929,70 63,70 63.355,70 "
     id="polygon3464"
     style="fill:#333533"
     transform="translate(-9.4713882,-28.582038)" /></svg>