<?xml version="1.0" encoding="UTF-8" standalone="no"?>
<svg width="36px" height="56px" viewBox="0 0 36 56" version="1.1" xmlns="http://www.w3.org/2000/svg" xmlns:xlink="http://www.w3.org/1999/xlink" xmlns:sketch="http://www.bohemiancoding.com/sketch/ns">
    <!-- Generator: Sketch 3.4.1 (15681) - http://www.bohemiancoding.com/sketch -->
    <title>heart</title>
    <desc>Created with Sketch.</desc>
    <defs></defs>
    <g id="Page-1" stroke="none" stroke-width="1" fill="none" fill-rule="evenodd" sketch:type="MSPage">
        <g id="heart" sketch:type="MSLayerGroup" fill="#F5CB5C">
            <path d="M12.339642,26.644107 C12.339642,26.644107 9.848642,25.564349 8.115421,28.633486 C8.115421,28.633486 6.761957,28.064744 6.0036,29.599009 C6.0036,29.599009 3.567017,29.769753 3.025169,32.668753 C3.025169,32.668753 2.429482,34.203625 1.887634,34.714641 C1.887634,34.714641 1.616709,37.272762 4.43247,40.739895 C4.43247,40.739895 7.898334,47.04952 9.468885,48.186395 C9.468885,48.186395 12.339063,51.596411 12.447317,52.505425 C12.447317,52.505425 14.234376,54.494804 16.887466,55.120662 C16.887466,55.120662 21.43587,56.256929 22.627821,53.699417 C22.627821,53.699417 25.497999,49.947912 26.418447,46.708032 C26.418447,46.708032 29.343041,39.830274 29.451295,39.546511 C29.451295,39.546511 30.805338,36.988391 28.963284,33.805628 C28.963284,33.805628 25.11882,35.68138 23.169091,32.896006 C23.169091,32.896006 21.111108,32.04411 20.678092,31.077371 C20.678092,31.077371 18.674525,29.82687 17.266066,30.224867 C17.266066,30.224867 16.182947,28.974366 15.262499,28.917856 L15.153666,28.121862 C15.154866,28.121862 13.043582,28.519859 12.339642,26.644107 L12.339642,26.644107 Z" id="path4" sketch:type="MSShapeGroup"></path>
            <path d="M29.072117,33.294611 C29.072117,33.294611 30.642667,30.679982 29.343041,28.747112 C29.343041,28.747112 29.397461,26.985595 27.826906,26.132483 C27.826906,26.132483 27.176804,24.257338 26.14868,24.598218 C26.14868,24.598218 25.28207,24.598218 25.390324,25.734485 C25.390324,25.734485 24.41488,25.962346 24.41488,26.53048 C24.41488,26.53048 22.627821,27.155731 22.844908,28.80423 C22.844908,28.80423 21.111687,30.339102 23.223508,31.931091 C23.223508,31.931091 23.440015,33.352336 25.605674,34.091214 C25.606253,34.090014 28.043993,34.204233 29.072117,33.294611 L29.072117,33.294611 Z" id="path6" sketch:type="MSShapeGroup"></path>
            <path d="M1.888213,33.351121 C1.888213,33.351121 0.751256,32.896006 1.129856,30.793001 C1.129856,30.793001 -1.144635,21.471357 5.083152,17.833479 C5.083152,17.833479 7.357643,14.537089 8.494599,15.50322 C8.494599,15.50322 9.740388,16.071354 8.874357,18.515847 C8.874357,18.515847 10.715253,20.391599 9.957475,21.812845 C9.957475,21.812845 10.76967,22.949112 9.848642,23.688597 C9.848642,23.688597 10.390491,25.109235 9.199119,25.84872 C9.199119,25.84872 7.845076,26.814851 7.899492,28.008843 C7.899492,28.008843 6.220687,27.780981 5.787671,29.032091 C5.787671,29.032091 2.863656,29.543715 2.700986,32.271363 C2.700407,32.270756 2.483899,33.464748 1.888213,33.351121 L1.888213,33.351121 Z" id="path8" sketch:type="MSShapeGroup"></path>
            <path d="M5.245244,17.038092 C5.245244,17.038092 7.005673,14.707833 8.223675,15.020155 C8.223675,15.020155 9.604347,15.21885 9.442256,17.521158 L9.171331,18.487896 L9.577718,18.970962 C9.577718,18.970962 10.281658,15.248016 11.310939,15.389594 C11.310939,15.389594 13.449389,13.002217 12.880911,8.994901 C12.880911,8.994901 10.41712,9.080581 7.032302,12.945708 C7.032881,12.945708 5.191406,15.275967 5.245244,17.038092 L5.245244,17.038092 Z" id="path10" sketch:type="MSShapeGroup"></path>
            <path d="M29.722219,28.775671 C29.722219,28.775671 30.859754,25.194303 30.04756,23.006229 C30.04756,23.006229 31.022425,21.527867 31.753573,23.006229 C31.753573,23.006229 32.34926,23.858733 32.781696,23.148414 L33.459007,23.773057 C33.459007,23.773057 34.379456,23.943801 34.48771,23.119856 L33.350753,21.158428 L34.947934,21.101308 C34.947934,21.101308 35.54362,19.965041 34.975144,19.197605 L33.513426,18.970351 L34.325041,18.231474 C34.325041,18.231474 34.407241,17.123158 33.675517,17.180275 L32.619607,18.743098 L25.580204,20.192902 C25.580204,20.192902 23.982445,20.022158 23.549429,22.438093 C23.549429,22.438093 22.845489,25.848109 20.949597,28.519856 C20.949597,28.519856 21.654116,30.395608 21.518075,31.105927 C21.518075,31.105927 21.057851,31.64611 22.926535,32.526565 L22.953745,32.157734 C22.953745,32.157734 21.572494,31.049417 21.925043,29.798916 C21.925043,29.798916 22.195967,28.861344 22.520729,28.747717 C22.520729,28.747717 22.277013,27.212845 24.145696,26.275273 C24.145696,26.275273 24.524296,25.479278 25.065566,25.450719 C25.065566,25.450719 25.309282,24.171659 26.094847,24.200218 C26.094847,24.200218 27.312849,23.859338 28.071205,25.962343 C28.070627,25.962343 29.478507,26.501918 29.722223,28.775668 L29.722219,28.775671 Z" id="path12" sketch:type="MSShapeGroup"></path>
            <path d="M33.07925,14.309836 C33.07925,14.309836 28.801771,14.025465 25.714507,15.333084 C25.714507,15.333084 23.115254,17.493207 19.974731,16.867956 C19.974731,16.867956 18.079418,16.910486 17.591985,16.512493 C17.591985,16.512493 15.980912,17.43609 15.723302,19.311842 C15.723302,19.311842 17.970585,18.856727 18.132676,20.789597 C18.132676,20.789597 18.078836,23.517853 15.804926,24.256731 C15.804926,24.256731 13.693106,24.65412 12.663825,26.131875 C12.663825,26.131875 13.043003,28.121254 15.317494,27.723257 C15.317494,27.723257 16.075272,25.507232 18.079418,25.450115 C18.079418,25.450115 15.696672,26.529872 15.642835,28.575761 C15.642835,28.575761 16.779791,29.144502 17.429894,29.82687 C17.429894,29.82687 19.162536,29.656126 21.166682,30.963137 C21.166682,30.963137 21.166682,29.485382 20.516579,28.519251 C20.516579,28.519251 22.953741,24.824256 23.224665,22.209627 C23.224665,22.209627 23.657681,19.538488 25.552994,19.879368 L32.484722,18.45873 C32.484143,18.459338 33.512845,16.129079 33.07925,14.309836 L33.07925,14.309836 Z M32.778802,16.456591 C32.637551,17.457964 32.396729,18.250313 32.241006,18.226008 C32.085282,18.201708 32.074283,17.370466 32.216116,16.369092 C32.357946,15.367719 32.598768,14.57537 32.754491,14.600283 C32.909636,14.623983 32.920056,15.455218 32.778801,16.456591 L32.778802,16.456591 Z" id="path14" sketch:type="MSShapeGroup"></path>
            <g id="g16" transform="translate(3.516074, 0.700758)" sketch:type="MSShapeGroup">
                <path d="M7.19917864,8.72069815 C7.19917864,8.72069815 8.6342674,7.78312588 9.58134494,8.03893789 C9.58134494,8.03893789 10.4479556,11.1651915 8.22788083,14.9160882 C8.22788083,14.9160882 10.0693562,12.3020662 11.2068912,11.6196984 C11.2068912,11.6196984 10.286443,6.90145552 8.76972959,4.23031637 C7.25359507,1.55917722 7.79544383,0.308068141 7.79544383,0.308068141 C7.79544383,0.308068141 6.33314685,-0.317182583 5.68362302,0.933318866 L6.92883315,4.96919381 C6.92883315,4.96919381 3.73331481,1.61507913 0.4301214,3.49143893 C0.4301214,3.49143893 -0.273818872,4.85556709 1.18847811,5.48081782 C1.18847811,5.48081782 2.27159673,4.05957249 4.97910385,5.99244183 C4.97852495,5.99244183 6.76558385,7.35656999 7.19917864,8.72069815 L7.19917864,8.72069815 Z M6.81073791,0.924812053 C6.3510927,1.04269217 5.94817952,1.00805729 5.91113003,0.84825074 C5.87408054,0.68783656 6.21563051,0.463013656 6.67527572,0.345133539 C7.13492093,0.227861051 7.53725521,0.261888302 7.5748836,0.422302482 C7.61251199,0.582716662 7.26980422,0.807539566 6.81073791,0.924812053 L6.81073791,0.924812053 Z" id="path18"></path>
                <path d="M24.0399076,4.74194038 C24.0399076,4.74194038 21.3324005,2.24093749 18.6248934,3.66218282 C18.6248934,3.66218282 15.105192,5.19705486 14.3468353,9.9711996 L13.859403,10.4828236 C13.859403,10.4828236 15.1590296,2.00639251 15.7547159,1.33131617 C15.7547159,1.33131617 14.9425216,0.13732426 13.4802246,0.876201696 C13.4802246,0.876201696 11.8014197,5.02570335 11.6931658,11.1645839 L11.720374,11.7041589 C11.720374,11.7041589 10.1226148,12.8410336 8.36276412,15.2849193 L7.84812358,15.1147831 C7.84812358,15.1147831 6.8466296,15.0868321 6.35861838,18.6955435 C6.35861838,18.6955435 7.30685371,19.7187916 6.8460507,21.1114783 C6.8460507,21.1114783 7.441737,22.1347263 6.71058851,23.2144839 C6.71058851,23.2144839 6.95430468,24.4929363 6.25036441,25.26098 C6.25036441,25.26098 5.03178359,25.772604 4.76143811,26.9945468 C4.76143811,26.9945468 6.35861838,24.8629827 8.65973892,25.4596748 C8.65973892,25.4596748 9.74343645,23.7546665 11.9090948,23.04374 C11.9090948,23.04374 10.3385438,17.3028568 14.5083479,15.1433417 C14.5083479,15.1433417 17.540617,14.0064669 19.2200008,15.8257095 C19.2200008,15.8257095 21.9819243,14.745952 22.2522698,14.0070745 C22.2522698,14.0070745 21.5477507,11.0509572 16.8372556,9.9711996 C16.8372556,9.9711996 17.432363,3.71869236 23.1194594,6.16318571 C23.1200383,6.16318571 24.310832,5.76518841 24.0399076,4.74194038 L24.0399076,4.74194038 Z M13.7470967,0.965523228 C13.7690949,0.8020709 14.1662191,0.725509587 14.6345478,0.794171717 C15.1034553,0.862833847 15.4652667,1.05119898 15.4426897,1.21404368 C15.4218494,1.37749601 15.0241463,1.45405732 14.5558176,1.38539519 C14.0874889,1.31673306 13.7250986,1.12897556 13.7470967,0.965523228 L13.7470967,0.965523228 Z M23.6503091,5.57682328 C23.3903838,5.83810395 23.0916723,5.95416118 22.9828394,5.8350658 C22.8740066,5.71597042 22.996733,5.40729465 23.2572372,5.14601398 C23.5171625,4.88412568 23.815874,4.76867608 23.924128,4.88777146 C24.0329608,5.00686683 23.9102344,5.3155426 23.6503091,5.57682328 L23.6503091,5.57682328 Z" id="path20"></path>
            </g>
        </g>
    </g>
</svg>